Coordinates
version=1
nRows=28
nColumns=38
inDegrees=no

Units are S.I. units (second, meters, Newtons, ...)
If the header above contains a line with 'inDegrees', this indicates whether rotational values are in degrees (yes) or radians (no).

endheader
time	pelvis_tilt	pelvis_list	pelvis_rotation	pelvis_tx	pelvis_ty	pelvis_tz	hip_flexion_r	hip_adduction_r	hip_rotation_r	knee_angle_r	ankle_angle_r	subtalar_angle_r	mtp_angle_r	hip_flexion_l	hip_adduction_l	hip_rotation_l	knee_angle_l	ankle_angle_l	subtalar_angle_l	mtp_angle_l	lumbar_extension	lumbar_bending	lumbar_rotation	arm_flex_r	arm_add_r	arm_rot_r	elbow_flex_r	pro_sup_r	wrist_flex_r	wrist_dev_r	arm_flex_l	arm_add_l	arm_rot_l	elbow_flex_l	pro_sup_l	wrist_flex_l	wrist_dev_l
0	0.229632	1.33438	-1.79815	0.700554	1.75344	0.963209	-0.424786	-0.0208223	-0.186715	0	0.0540854	0	0	-0.213059	0.0179865	-0.265408	0.129991	-0.0276718	0	0	-0.628884	-0.0607265	0.0251922	1.29681	-0.518931	1.4935	0.775788	0.455114	0	0	1.23307	-0.422435	1.10628	0.785892	0.79058	0	0
0.01	0.228265	1.33691	-1.79872	0.700698	1.75296	0.963071	-0.422576	-0.0209391	-0.185638	0	0.0539081	0	0	-0.210959	0.0176646	-0.264857	0.130574	-0.0267212	0	0	-0.631841	-0.0611277	0.0274207	1.30758	-0.516584	1.50369	0.768493	0.454132	0	0	1.24506	-0.416319	1.1128	0.777209	0.785906	0	0
0.02	0.228765	1.33931	-1.80107	0.700908	1.75247	0.962955	-0.420398	-0.0215903	-0.184287	0	0.0530294	0	0	-0.209616	0.0182104	-0.263749	0.129413	-0.0275373	0	0	-0.634897	-0.061757	0.0292112	1.31818	-0.514086	1.51258	0.760631	0.451522	0	0	1.25643	-0.410904	1.12255	0.767147	0.7838	0	0
0.03	0.22953	1.34284	-1.80359	0.701183	1.75187	0.962763	-0.416997	-0.0220248	-0.1824	0	0.0520105	0	0	-0.20572	0.0184204	-0.265735	0.130609	-0.0277101	0	0	-0.637264	-0.0615988	0.0294199	1.32969	-0.509492	1.52249	0.751916	0.448359	0	0	1.26634	-0.409594	1.12981	0.763033	0.780532	0	0
0.04	0.230263	1.34607	-1.80606	0.70146	1.75123	0.962582	-0.414114	-0.0224203	-0.181015	0	0.0515832	0	0	-0.202188	0.0183632	-0.266934	0.132513	-0.0267642	0	0	-0.639734	-0.0615863	0.0302277	1.34055	-0.505675	1.53224	0.74338	0.445648	0	0	1.2762	-0.407183	1.13624	0.759383	0.777332	0	0
0.05	0.229015	1.34729	-1.80739	0.701616	1.75055	0.962552	-0.413586	-0.0230101	-0.179053	0	0.051111	0	0	-0.202557	0.018664	-0.265895	0.131494	-0.0275055	0	0	-0.644012	-0.0623818	0.0324795	1.35129	-0.503046	1.54209	0.735503	0.444262	0	0	1.28655	-0.402659	1.14565	0.752599	0.77688	0	0
0.06	0.283955	1.32149	-1.87767	0.701542	1.74886	0.965675	-0.437981	-0.0515152	-0.176326	0	0.0503593	0	0	-0.236509	0.0482594	-0.284356	0.112902	-0.0513934	0	0	-0.670702	-0.086551	0.03404	1.36246	-0.500631	1.55274	0.726668	0.444565	0	0	1.29435	-0.397942	1.15083	0.746947	0.776183	0	0
0.07	0.228289	1.35682	-1.81046	0.702007	1.74891	0.961839	-0.40492	-0.0225596	-0.177607	0	0.048883	0	0	-0.191498	0.0167926	-0.269064	0.13859	-0.0212367	0	0	-0.645265	-0.062063	0.0372312	1.37085	-0.497892	1.56019	0.718249	0.445715	0	0	1.30329	-0.394345	1.15652	0.742851	0.776081	0	0
0.08	0.222792	1.35304	-1.80329	0.702624	1.7484	0.962199	-0.411003	-0.0225713	-0.173805	0	0.0444105	0	0	-0.194097	0.0167895	-0.270495	0.142917	-0.0189526	0	0	-0.654295	-0.0595344	0.0332212	1.38169	-0.490848	1.5708	0.70668	0.449296	0	0	1.31023	-0.393806	1.15788	0.740938	0.777922	0	0
0.09	0.220585	1.34947	-1.79747	0.703563	1.74718	0.962296	-0.418781	-0.0223535	-0.168137	0	0.0389461	0	0	-0.197926	0.0170126	-0.273079	0.145632	-0.0182715	0	0	-0.661027	-0.056734	0.0282843	1.38629	-0.485299	1.5708	0.696197	0.456988	0	0	1.31325	-0.392218	1.15653	0.738687	0.782836	0	0
0.1	0.281309	1.32913	-1.88324	0.703008	1.74617	0.965286	-0.432459	-0.0540177	-0.172727	0	0.0475708	0	0	-0.227889	0.0486029	-0.291018	0.122491	-0.0466268	0	0	-0.685391	-0.0846709	0.0372854	1.40318	-0.480105	1.5708	0.683847	0.472217	0	0	1.32385	-0.38845	1.15465	0.732069	0.79173	0	0
0.11	0.288805	1.33066	-1.88326	0.703813	1.74381	0.964903	-0.436456	-0.0530855	-0.166833	0	0.0400499	0	0	-0.225965	0.0484661	-0.295071	0.126871	-0.0419551	0	0	-0.684261	-0.0830564	0.0313573	1.39874	-0.478315	1.5708	0.672959	0.491148	0	0	1.32323	-0.381765	1.15217	0.726816	0.801928	0	0
0.12	0.237091	1.36558	-1.81722	0.704302	1.74349	0.961243	-0.404213	-0.02436	-0.169261	0	0.0408226	0	0	-0.180837	0.0177192	-0.280113	0.152666	-0.0116401	0	0	-0.659098	-0.0585098	0.0314236	1.40525	-0.473784	1.5708	0.660412	0.518118	0	0	1.33134	-0.379339	1.15271	0.72439	0.817126	0	0
0.13	0.240682	1.37603	-1.82999	0.704088	1.74339	0.960551	-0.389588	-0.0259727	-0.173713	0	0.0490962	0	0	-0.169241	0.0173011	-0.281522	0.155277	-0.0100573	0	0	-0.657576	-0.0605563	0.0401105	1.42101	-0.468511	1.5708	0.645455	0.5582	0	0	1.34224	-0.375389	1.15125	0.716972	0.840789	0	0
0.14	0.243815	1.37898	-1.83191	0.704578	1.74198	0.960194	-0.388996	-0.0259038	-0.171428	0	0.0471902	0	0	-0.166012	0.0167817	-0.283831	0.159395	-0.00572664	0	0	-0.657924	-0.0603694	0.0402196	1.42366	-0.465234	1.5708	0.630309	0.619378	0	0	1.34535	-0.367566	1.1447	0.70782	0.870992	0	0
0.15	0.249439	1.38679	-1.84116	0.704801	1.74067	0.959732	-0.380037	-0.026511	-0.172958	0	0.0501688	0	0	-0.156335	0.0158349	-0.287055	0.165282	-0.00058643	0	0	-0.655878	-0.0612123	0.0438666	1.42758	-0.458739	1.54724	0.610206	0.702529	0	0	1.34958	-0.361041	1.12785	0.699333	0.909755	0	0
0.16	0.265325	1.41048	-1.85593	0.705348	1.73937	0.957826	-0.355429	-0.0225408	-0.170838	0	0.050567	0	0	-0.116928	0.00654104	-0.310098	0.199298	0.023349	0	0	-0.636342	-0.0569123	0.0441911	1.41839	-0.447308	1.49009	0.582925	0.809535	0	0	1.33866	-0.355345	1.07434	0.698689	0.957778	0	0
0.17	0.25695	1.39326	-1.85052	0.705662	1.7383	0.959442	-0.375212	-0.0277916	-0.170948	0	0.050048	0	0	-0.150261	0.0165531	-0.289934	0.168912	0.00110199	0	0	-0.658258	-0.0611573	0.0423841	1.43232	-0.404434	1.5336	0.500134	0.712232	0	0	1.36139	-0.35712	1.13272	0.69039	0.909935	0	0
0.18	0.258591	1.38626	-1.84398	0.706755	1.73644	0.959986	-0.388222	-0.0283845	-0.16601	0	0.0440593	0	0	-0.159632	0.0191093	-0.288428	0.167382	0.000885975	0	0	-0.670278	-0.0585664	0.0390734	1.45231	-0.460043	1.5708	0.614735	0.455173	0	0	1.37788	-0.357283	1.1912	0.704304	0.732175	0	0
0.19	0.264422	1.39491	-1.85853	0.706538	1.73606	0.959341	-0.375979	-0.0300357	-0.171778	0	0.0538137	0	0	-0.1509	0.0193455	-0.289675	0.168884	0.0017935	0	0	-0.670313	-0.0616629	0.0468499	1.467	-0.456693	1.5708	0.607274	0.458038	0	0	1.39152	-0.355948	1.19722	0.70166	0.729	0	0
0.2	0.271276	1.39838	-1.86576	0.707135	1.73454	0.959111	-0.373556	-0.0310922	-0.171194	0	0.0542152	0	0	-0.146324	0.0208118	-0.296833	0.173387	0.00460106	0	0	-0.671883	-0.0613381	0.0470057	1.47421	-0.453804	1.5708	0.599508	0.459864	0	0	1.39878	-0.353749	1.2027	0.699305	0.727044	0	0
0.21	0.276045	1.40146	-1.87131	0.70769	1.73293	0.958845	-0.371627	-0.0318137	-0.170677	0	0.0537107	0	0	-0.144232	0.0216952	-0.299677	0.174333	0.00620685	0	0	-0.673715	-0.0607363	0.0472698	1.4814	-0.450212	1.5708	0.591727	0.461256	0	0	1.40452	-0.352137	1.20432	0.69789	0.727123	0	0
0.22	0.277294	1.40345	-1.87362	0.708186	1.73135	0.958622	-0.371028	-0.0324226	-0.169843	0	0.0538896	0	0	-0.143828	0.0224201	-0.301774	0.174602	0.00783858	0	0	-0.676503	-0.05918	0.0475067	1.4893	-0.445232	1.5708	0.581666	0.488189	0	0	1.40697	-0.349737	1.19282	0.693172	0.770903	0	0
0.23	0.281453	1.40697	-1.87901	0.708453	1.7296	0.958292	-0.36885	-0.0328691	-0.168647	0	0.0550489	0	0	-0.141427	0.0227466	-0.30479	0.175726	0.010055	0	0	-0.677593	-0.059219	0.0490793	1.49576	-0.443876	1.5708	0.577044	0.476895	0	0	1.41329	-0.346755	1.19674	0.691353	0.758687	0	0
0.24	0.28602	1.41056	-1.8853	0.708624	1.72787	0.958001	-0.366488	-0.033365	-0.166373	0	0.0552343	0	0	-0.138959	0.0229886	-0.308665	0.176932	0.0120699	0	0	-0.678515	-0.0599888	0.0514918	1.50185	-0.443549	1.5708	0.573068	0.470707	0	0	1.42015	-0.341897	1.20118	0.686043	0.749704	0	0
0.25	0.35286	1.37745	-1.96709	0.709036	1.72486	0.961614	-0.398386	-0.0653132	-0.164459	0	0.057348	0	0	-0.184001	0.0577097	-0.326859	0.149107	-0.0162691	0	0	-0.710632	-0.0858447	0.0502698	1.51004	-0.444011	1.5708	0.569252	0.468725	0	0	1.42696	-0.336108	1.20476	0.679761	0.7432	0	0
0.26	0.359903	1.37882	-1.97509	0.70948	1.72297	0.961468	-0.398696	-0.0672538	-0.164559	0	0.0589518	0	0	-0.185313	0.0602188	-0.327758	0.146367	-0.0178444	0	0	-0.713711	-0.0867058	0.0507154	1.51672	-0.443463	1.5708	0.565433	0.468696	0	0	1.43438	-0.332878	1.2103	0.676379	0.737993	0	0
0.27	0.319901	1.41349	-1.91105	0.711283	1.72166	0.957762	-0.372067	-0.0381218	-0.164854	0	0.0523816	0	0	-0.140124	0.0302788	-0.312183	0.176454	0.0131666	0	0	-0.686082	-0.0577509	0.0435923	1.51562	-0.44168	1.5708	0.559089	0.477712	0	0	1.4359	-0.330218	1.21603	0.673697	0.734241	0	0
